<svg xmlns="http://www.w3.org/2000/svg" width="89" height="87.006" viewBox="0 0 89 87.006">
  <g id="Group_1" data-name="Group 1" transform="translate(-28.411 -29.13)">
    <path id="Path_3" data-name="Path 3" d="M4.978.125l1.991.05C9.718.245,12,2.221,12.072,4.59L14.327,81.8c.069,2.369-2.1,4.233-4.853,4.164l-1.991-.05c-2.749-.069-5.034-2.046-5.1-4.415L.125,4.289C.056,1.92,2.229.056,4.978.125Z" transform="matrix(0.985, -0.174, 0.174, 0.985, 44.881, 31.496)" fill="#fff"/>
    <path id="Path_4" data-name="Path 4" d="M4.978.125l1.991.05C9.718.245,12,2.221,12.072,4.59L14.327,81.8c.069,2.369-2.1,4.233-4.853,4.164l-1.991-.05c-2.749-.069-5.034-2.046-5.1-4.415L.125,4.289C.056,1.92,2.229.056,4.978.125Z" transform="matrix(0.985, -0.174, 0.174, 0.985, 75.484, 31.496)" fill="#fff"/>
    <rect id="Rectangle_5" data-name="Rectangle 5" width="89" height="13" rx="5" transform="translate(28.411 48)" fill="#fff"/>
    <rect id="Rectangle_6" data-name="Rectangle 6" width="89" height="12" rx="5" transform="translate(28.411 82)" fill="#fff"/>
  </g>
</svg>
